{
	"asset":{
		"generator":"Khronos glTF Blender I/O v4.0.44",
		"version":"2.0"
	},
	"scene":0,
	"scenes":[
		{
			"extras":{
				"scatter_properties":{}
			},
			"name":"Scene",
			"nodes":[
				0,
				1,
				2,
				3,
				4,
				5,
				6,
				7,
				8
			]
		}
	],
	"nodes":[
		{
			"extras":{
				"ant_landscape":{}
			},
			"name":"wrench03",
			"scale":[
				0,
				0,
				0
			]
		},
		{
			"extras":{
				"ant_landscape":{}
			},
			"mesh":0,
			"name":"ToolBox"
		},
		{
			"mesh":1,
			"name":"Plane"
		},
		{
			"extras":{
				"ant_landscape":{}
			},
			"mesh":2,
			"name":"Plane.001"
		},
		{
			"mesh":3,
			"name":"Cylinder"
		},
		{
			"mesh":4,
			"name":"Cylinder.001"
		},
		{
			"mesh":5,
			"name":"Plane.002"
		},
		{
			"mesh":6,
			"name":"Cylinder.002"
		},
		{
			"mesh":7,
			"name":"Cylinder.003"
		}
	],
	"materials":[
		{
			"doubleSided":true,
			"name":"Base",
			"pbrMetallicRoughness":{
				"metallicFactor":0.25,
				"roughnessFactor":0.4000000059604645
			}
		}
	],
	"meshes":[
		{
			"name":"Cube.001",
			"primitives":[
				{
					"attributes":{
						"POSITION":0,
						"NORMAL":1,
						"TEXCOORD_0":2
					},
					"indices":3,
					"material":0
				}
			]
		},
		{
			"name":"Plane",
			"primitives":[
				{
					"attributes":{
						"POSITION":4,
						"NORMAL":5,
						"TEXCOORD_0":6
					},
					"indices":7,
					"material":0
				}
			]
		},
		{
			"name":"Plane.001",
			"primitives":[
				{
					"attributes":{
						"POSITION":8,
						"NORMAL":9,
						"TEXCOORD_0":10
					},
					"indices":11,
					"material":0
				}
			]
		},
		{
			"name":"Cylinder.001",
			"primitives":[
				{
					"attributes":{
						"POSITION":12,
						"NORMAL":13,
						"TEXCOORD_0":14
					},
					"indices":15,
					"material":0
				}
			]
		},
		{
			"name":"Cylinder.005",
			"primitives":[
				{
					"attributes":{
						"POSITION":16,
						"NORMAL":17,
						"TEXCOORD_0":18
					},
					"indices":19,
					"material":0
				}
			]
		},
		{
			"name":"Plane.002",
			"primitives":[
				{
					"attributes":{
						"POSITION":20,
						"NORMAL":21,
						"TEXCOORD_0":22
					},
					"indices":23,
					"material":0
				}
			]
		},
		{
			"name":"Cylinder.002",
			"primitives":[
				{
					"attributes":{
						"POSITION":24,
						"NORMAL":25,
						"TEXCOORD_0":26
					},
					"indices":27,
					"material":0
				}
			]
		},
		{
			"name":"Cylinder.003",
			"primitives":[
				{
					"attributes":{
						"POSITION":28,
						"NORMAL":29,
						"TEXCOORD_0":30
					},
					"indices":31,
					"material":0
				}
			]
		}
	],
	"accessors":[
		{
			"bufferView":0,
			"componentType":5126,
			"count":492,
			"max":[
				2.1060867309570312,
				0.7813049554824829,
				1.0207936763763428
			],
			"min":[
				-2.106077194213867,
				-1.3191272020339966,
				-0.9792063236236572
			],
			"type":"VEC3"
		},
		{
			"bufferView":1,
			"componentType":5126,
			"count":492,
			"type":"VEC3"
		},
		{
			"bufferView":2,
			"componentType":5126,
			"count":492,
			"type":"VEC2"
		},
		{
			"bufferView":3,
			"componentType":5123,
			"count":834,
			"type":"SCALAR"
		},
		{
			"bufferView":4,
			"componentType":5126,
			"count":304,
			"max":[
				1.2339625358581543,
				0.16430263221263885,
				0.3922872543334961
			],
			"min":[
				-1.4660372734069824,
				-0.16430246829986572,
				-0.3922886848449707
			],
			"type":"VEC3"
		},
		{
			"bufferView":5,
			"componentType":5126,
			"count":304,
			"type":"VEC3"
		},
		{
			"bufferView":6,
			"componentType":5126,
			"count":304,
			"type":"VEC2"
		},
		{
			"bufferView":7,
			"componentType":5123,
			"count":624,
			"type":"SCALAR"
		},
		{
			"bufferView":8,
			"componentType":5126,
			"count":443,
			"max":[
				0.9223291873931885,
				0.12464645504951477,
				0.2952890396118164
			],
			"min":[
				-1.4979021549224854,
				-0.1346641331911087,
				-0.48264217376708984
			],
			"type":"VEC3"
		},
		{
			"bufferView":9,
			"componentType":5126,
			"count":443,
			"type":"VEC3"
		},
		{
			"bufferView":10,
			"componentType":5126,
			"count":443,
			"type":"VEC2"
		},
		{
			"bufferView":11,
			"componentType":5123,
			"count":894,
			"type":"SCALAR"
		},
		{
			"bufferView":12,
			"componentType":5126,
			"count":600,
			"max":[
				1.466939926147461,
				0.22626818716526031,
				0.22626781463623047
			],
			"min":[
				-2.0845210552215576,
				-0.2262682169675827,
				-0.22626876831054688
			],
			"type":"VEC3"
		},
		{
			"bufferView":13,
			"componentType":5126,
			"count":600,
			"type":"VEC3"
		},
		{
			"bufferView":14,
			"componentType":5126,
			"count":600,
			"type":"VEC2"
		},
		{
			"bufferView":15,
			"componentType":5123,
			"count":996,
			"type":"SCALAR"
		},
		{
			"bufferView":16,
			"componentType":5126,
			"count":600,
			"max":[
				1.609797477722168,
				0.22626818716526031,
				0.22626757621765137
			],
			"min":[
				-2.941663980484009,
				-0.2262682169675827,
				-0.22626888751983643
			],
			"type":"VEC3"
		},
		{
			"bufferView":17,
			"componentType":5126,
			"count":600,
			"type":"VEC3"
		},
		{
			"bufferView":18,
			"componentType":5126,
			"count":600,
			"type":"VEC2"
		},
		{
			"bufferView":19,
			"componentType":5123,
			"count":996,
			"type":"SCALAR"
		},
		{
			"bufferView":20,
			"componentType":5126,
			"count":48,
			"max":[
				2.1695828437805176,
				0.04999999701976776,
				0.18067169189453125
			],
			"min":[
				-2.1695828437805176,
				-0.05000000447034836,
				-0.36712169647216797
			],
			"type":"VEC3"
		},
		{
			"bufferView":21,
			"componentType":5126,
			"count":48,
			"type":"VEC3"
		},
		{
			"bufferView":22,
			"componentType":5126,
			"count":48,
			"type":"VEC2"
		},
		{
			"bufferView":23,
			"componentType":5123,
			"count":84,
			"type":"SCALAR"
		},
		{
			"bufferView":24,
			"componentType":5126,
			"count":2762,
			"max":[
				0.36062783002853394,
				0.5139113664627075,
				0.41747820377349854
			],
			"min":[
				-0.3626338243484497,
				-0.7808054089546204,
				-0.41767239570617676
			],
			"type":"VEC3"
		},
		{
			"bufferView":25,
			"componentType":5126,
			"count":2762,
			"type":"VEC3"
		},
		{
			"bufferView":26,
			"componentType":5126,
			"count":2762,
			"type":"VEC2"
		},
		{
			"bufferView":27,
			"componentType":5123,
			"count":3096,
			"type":"SCALAR"
		},
		{
			"bufferView":28,
			"componentType":5126,
			"count":72,
			"max":[
				0.36163079738616943,
				0.13927172124385834,
				0.4175751209259033
			],
			"min":[
				-0.36163079738616943,
				-0.13927172124385834,
				-0.4175755977630615
			],
			"type":"VEC3"
		},
		{
			"bufferView":29,
			"componentType":5126,
			"count":72,
			"type":"VEC3"
		},
		{
			"bufferView":30,
			"componentType":5126,
			"count":72,
			"type":"VEC2"
		},
		{
			"bufferView":31,
			"componentType":5123,
			"count":144,
			"type":"SCALAR"
		}
	],
	"bufferViews":[
		{
			"buffer":0,
			"byteLength":5904,
			"byteOffset":0,
			"target":34962
		},
		{
			"buffer":0,
			"byteLength":5904,
			"byteOffset":5904,
			"target":34962
		},
		{
			"buffer":0,
			"byteLength":3936,
			"byteOffset":11808,
			"target":34962
		},
		{
			"buffer":0,
			"byteLength":1668,
			"byteOffset":15744,
			"target":34963
		},
		{
			"buffer":0,
			"byteLength":3648,
			"byteOffset":17412,
			"target":34962
		},
		{
			"buffer":0,
			"byteLength":3648,
			"byteOffset":21060,
			"target":34962
		},
		{
			"buffer":0,
			"byteLength":2432,
			"byteOffset":24708,
			"target":34962
		},
		{
			"buffer":0,
			"byteLength":1248,
			"byteOffset":27140,
			"target":34963
		},
		{
			"buffer":0,
			"byteLength":5316,
			"byteOffset":28388,
			"target":34962
		},
		{
			"buffer":0,
			"byteLength":5316,
			"byteOffset":33704,
			"target":34962
		},
		{
			"buffer":0,
			"byteLength":3544,
			"byteOffset":39020,
			"target":34962
		},
		{
			"buffer":0,
			"byteLength":1788,
			"byteOffset":42564,
			"target":34963
		},
		{
			"buffer":0,
			"byteLength":7200,
			"byteOffset":44352,
			"target":34962
		},
		{
			"buffer":0,
			"byteLength":7200,
			"byteOffset":51552,
			"target":34962
		},
		{
			"buffer":0,
			"byteLength":4800,
			"byteOffset":58752,
			"target":34962
		},
		{
			"buffer":0,
			"byteLength":1992,
			"byteOffset":63552,
			"target":34963
		},
		{
			"buffer":0,
			"byteLength":7200,
			"byteOffset":65544,
			"target":34962
		},
		{
			"buffer":0,
			"byteLength":7200,
			"byteOffset":72744,
			"target":34962
		},
		{
			"buffer":0,
			"byteLength":4800,
			"byteOffset":79944,
			"target":34962
		},
		{
			"buffer":0,
			"byteLength":1992,
			"byteOffset":84744,
			"target":34963
		},
		{
			"buffer":0,
			"byteLength":576,
			"byteOffset":86736,
			"target":34962
		},
		{
			"buffer":0,
			"byteLength":576,
			"byteOffset":87312,
			"target":34962
		},
		{
			"buffer":0,
			"byteLength":384,
			"byteOffset":87888,
			"target":34962
		},
		{
			"buffer":0,
			"byteLength":168,
			"byteOffset":88272,
			"target":34963
		},
		{
			"buffer":0,
			"byteLength":33144,
			"byteOffset":88440,
			"target":34962
		},
		{
			"buffer":0,
			"byteLength":33144,
			"byteOffset":121584,
			"target":34962
		},
		{
			"buffer":0,
			"byteLength":22096,
			"byteOffset":154728,
			"target":34962
		},
		{
			"buffer":0,
			"byteLength":6192,
			"byteOffset":176824,
			"target":34963
		},
		{
			"buffer":0,
			"byteLength":864,
			"byteOffset":183016,
			"target":34962
		},
		{
			"buffer":0,
			"byteLength":864,
			"byteOffset":183880,
			"target":34962
		},
		{
			"buffer":0,
			"byteLength":576,
			"byteOffset":184744,
			"target":34962
		},
		{
			"buffer":0,
			"byteLength":288,
			"byteOffset":185320,
			"target":34963
		}
	],
	"buffers":[
		{
			"byteLength":185608,
			"uri":"simple_garage_tools-f5a3def322cd9683b7860f21427b4ab2.bin"
		}
	]
}
